<svg width="104" height="33" viewBox="0 0 104 33" fill="none" xmlns="http://www.w3.org/2000/svg">
<path d="M21.5365 10.9698C21.3257 10.7648 21.0297 10.6717 20.7402 10.7193C20.4501 10.7667 20.1996 10.9489 20.065 11.2102C19.6022 12.1093 19.0143 12.9356 18.3227 13.666C18.3916 13.1384 18.4263 12.6076 18.4263 12.0754C18.4263 11.0542 18.2895 10.0033 18.0194 8.95155C17.1315 5.49701 14.8032 2.57556 11.6316 0.936325C11.3555 0.793656 11.0265 0.798665 10.7548 0.949683C10.4831 1.10076 10.3052 1.37775 10.2809 1.68758C10.0336 4.8269 8.41659 7.683 5.84193 9.52539C5.80786 9.54993 5.77403 9.57479 5.7402 9.59954C5.67012 9.65079 5.60407 9.69927 5.54237 9.73997C5.5327 9.74643 5.52313 9.75298 5.51373 9.75971C3.89447 10.919 2.55839 12.4645 1.64972 14.2294C0.726439 16.0246 0.258301 17.951 0.258301 19.955C0.258301 20.9759 0.395154 22.0267 0.66509 23.0787C2.08961 28.6232 7.07925 32.4956 12.799 32.4956C19.7136 32.4956 25.3389 26.8699 25.3389 19.955C25.3389 16.545 23.9885 13.354 21.5365 10.9698Z" fill="#0D0029"/>
<path d="M12.3189 23.8607C14.4385 23.8607 16.1568 22.1424 16.1568 20.0227C16.1568 17.9031 14.4385 16.1848 12.3189 16.1848C10.1993 16.1848 8.48096 17.9031 8.48096 20.0227C8.48096 22.1424 10.1993 23.8607 12.3189 23.8607Z" fill="#FFF0F4"/>
<path d="M101.105 17.8445V15.3263H101.612L102.555 16.5769H102.319L103.235 15.3263H103.742V17.8445H103.218V15.9043L103.427 15.9516L102.457 17.2022H102.39L101.453 15.9516L101.629 15.9043V17.8445H101.105Z" fill="#0D0029"/>
<path d="M99.693 17.8445V15.7826H99.0542V15.3263H100.846V15.7826H100.217V17.8445H99.693Z" fill="#0D0029"/>
<path d="M92.3074 29.3048C90.836 29.3048 89.5527 28.9615 88.4573 28.2748C87.3783 27.5718 86.6426 26.6318 86.2502 25.4547L88.9477 24.1795C89.2911 24.8988 89.757 25.4628 90.3456 25.8716C90.9341 26.2803 91.5881 26.4846 92.3074 26.4846C92.8306 26.4846 93.2311 26.3784 93.5091 26.1658C93.787 25.9533 93.926 25.659 93.926 25.283C93.926 25.0868 93.8769 24.9233 93.7788 24.7925C93.6807 24.6454 93.5336 24.5146 93.3374 24.4002C93.1412 24.2857 92.896 24.1876 92.6017 24.1059L90.321 23.4683C89.2257 23.1577 88.3837 22.659 87.7952 21.9724C87.2066 21.2694 86.9123 20.4438 86.9123 19.4955C86.9123 18.6618 87.1249 17.9342 87.5499 17.313C87.975 16.6917 88.5717 16.2094 89.3401 15.8661C90.1085 15.5064 90.9913 15.3266 91.9886 15.3266C93.2965 15.3266 94.4409 15.6372 95.4219 16.2585C96.4191 16.8634 97.1221 17.7217 97.5309 18.8334L94.8088 20.1086C94.6126 19.5528 94.2529 19.1113 93.7298 18.7844C93.2229 18.441 92.6426 18.2694 91.9886 18.2694C91.5145 18.2694 91.1385 18.3675 90.8606 18.5637C90.599 18.7598 90.4682 19.0296 90.4682 19.3729C90.4682 19.5528 90.5172 19.7162 90.6153 19.8634C90.7134 20.0105 90.8687 20.1413 91.0813 20.2558C91.3101 20.3702 91.5881 20.4765 91.9151 20.5746L94.0486 21.2122C95.1603 21.5391 96.0104 22.0378 96.599 22.7081C97.1875 23.362 97.4818 24.1713 97.4818 25.1359C97.4818 25.9697 97.2611 26.6972 96.8197 27.3184C96.3946 27.9397 95.7979 28.4301 95.0295 28.7898C94.2611 29.1331 93.3537 29.3048 92.3074 29.3048Z" fill="#0D0029"/>
<path d="M77.5998 29.0104V15.6208H81.0331V18.8333L80.7879 18.3674C81.0821 17.2393 81.5644 16.4791 82.2347 16.0867C82.9214 15.678 83.7306 15.4736 84.6625 15.4736H85.4473V18.6616H84.2947C83.3955 18.6616 82.668 18.9396 82.1121 19.4954C81.5563 20.0349 81.2783 20.8033 81.2783 21.8006V29.0104H77.5998Z" fill="#0D0029"/>
<path d="M69.0578 29.3048C67.6354 29.3048 66.4011 28.9942 65.3548 28.3729C64.3085 27.7353 63.4992 26.8852 62.927 25.8225C62.3548 24.7598 62.0687 23.5827 62.0687 22.2912C62.0687 20.9506 62.363 19.7571 62.9515 18.7108C63.5564 17.6645 64.3657 16.8389 65.3793 16.234C66.3929 15.6291 67.5373 15.3266 68.8125 15.3266C69.8752 15.3266 70.8153 15.4983 71.6327 15.8416C72.4501 16.1686 73.1368 16.6345 73.6926 17.2394C74.2649 17.8443 74.6981 18.5473 74.9924 19.3484C75.2867 20.1331 75.4338 20.9915 75.4338 21.9233C75.4338 22.1849 75.4174 22.4465 75.3848 22.7081C75.3684 22.9533 75.3275 23.1658 75.2621 23.3457H65.2322V20.6481H73.1777L71.4365 21.9233C71.6 21.2203 71.5918 20.5991 71.412 20.0596C71.2322 19.5037 70.9134 19.0705 70.4556 18.7598C70.0142 18.4329 69.4665 18.2694 68.8125 18.2694C68.1749 18.2694 67.6273 18.4247 67.1695 18.7353C66.7117 19.0459 66.3684 19.5037 66.1395 20.1086C65.9106 20.7135 65.8207 21.4492 65.8698 22.3157C65.8044 23.0677 65.8943 23.7299 66.1395 24.3021C66.3848 24.8743 66.7608 25.3239 67.2676 25.6509C67.7744 25.9615 68.3875 26.1168 69.1068 26.1168C69.7608 26.1168 70.3166 25.986 70.7744 25.7244C71.2485 25.4628 71.6164 25.1032 71.8779 24.6454L74.8207 26.0432C74.5591 26.6972 74.1422 27.2694 73.57 27.7598C73.0142 28.2503 72.3521 28.6345 71.5837 28.9124C70.8153 29.174 69.9733 29.3048 69.0578 29.3048Z" fill="#0D0029"/>
<path d="M55.2353 29.3048C53.7639 29.3048 52.4806 28.9615 51.3852 28.2748C50.3062 27.5718 49.5705 26.6318 49.1781 25.4547L51.8757 24.1795C52.219 24.8988 52.6849 25.4628 53.2735 25.8716C53.862 26.2803 54.516 26.4846 55.2353 26.4846C55.7585 26.4846 56.159 26.3784 56.437 26.1658C56.7149 25.9533 56.8539 25.659 56.8539 25.283C56.8539 25.0868 56.8048 24.9233 56.7067 24.7925C56.6086 24.6454 56.4615 24.5146 56.2653 24.4002C56.0691 24.2857 55.8239 24.1876 55.5296 24.1059L53.249 23.4683C52.1536 23.1577 51.3116 22.659 50.7231 21.9724C50.1345 21.2694 49.8402 20.4438 49.8402 19.4955C49.8402 18.6618 50.0528 17.9342 50.4778 17.313C50.9029 16.6917 51.4996 16.2094 52.268 15.8661C53.0364 15.5064 53.9193 15.3266 54.9165 15.3266C56.2244 15.3266 57.3688 15.6372 58.3498 16.2585C59.347 16.8634 60.05 17.7217 60.4588 18.8334L57.7367 20.1086C57.5405 19.5528 57.1808 19.1113 56.6577 18.7844C56.1509 18.441 55.5705 18.2694 54.9165 18.2694C54.4424 18.2694 54.0664 18.3675 53.7885 18.5637C53.5269 18.7598 53.3961 19.0296 53.3961 19.3729C53.3961 19.5528 53.4451 19.7162 53.5432 19.8634C53.6413 20.0105 53.7966 20.1413 54.0092 20.2558C54.2381 20.3702 54.516 20.4765 54.843 20.5746L56.9765 21.2122C58.0882 21.5391 58.9383 22.0378 59.5269 22.7081C60.1154 23.362 60.4097 24.1713 60.4097 25.1359C60.4097 25.9697 60.189 26.6972 59.7476 27.3184C59.3225 27.9397 58.7258 28.4301 57.9574 28.7898C57.189 29.1331 56.2816 29.3048 55.2353 29.3048Z" fill="#0D0029"/>
<path d="M43.6171 29.0105V15.6208H47.2956V29.0105H43.6171ZM43.6171 14.4192V10.7407H47.2956V14.4192H43.6171Z" fill="#0D0029"/>
<path d="M34.1575 29.0104V15.6208H37.5907V18.8333L37.3455 18.3674C37.6398 17.2393 38.122 16.4791 38.7923 16.0867C39.479 15.678 40.2883 15.4736 41.2201 15.4736H42.0049V18.6616H40.8523C39.9531 18.6616 39.2256 18.9396 38.6697 19.4954C38.1139 20.0349 37.8359 20.8033 37.8359 21.8006V29.0104H34.1575Z" fill="#0D0029"/>
</svg>
